<?xml version="1.0" standalone="no"?>
<!DOCTYPE svg PUBLIC "-//W3C//DTD SVG 20010904//EN"
 "http://www.w3.org/TR/2001/REC-SVG-20010904/DTD/svg10.dtd">
<svg version="1.0" xmlns="http://www.w3.org/2000/svg"
 width="1000.000000pt" height="1000.000000pt" viewBox="0 0 1000.000000 1000.000000"
 preserveAspectRatio="xMidYMid meet">
<metadata>
Created by potrace 1.14, written by Peter Selinger 2001-2017
</metadata>
<g transform="translate(0.000000,1000.000000) scale(0.100000,-0.100000)"
fill="#000000" stroke="none">
<path d="M8756 5963 c-6 -6 -205 -13 -541 -18 -187 -3 -401 -7 -475 -10 -74
-3 -207 -7 -295 -10 -194 -6 -431 -15 -579 -22 -61 -3 -876 -7 -1811 -8 -935
-2 -1749 -6 -1810 -8 -60 -3 -195 -8 -300 -11 -104 -4 -228 -9 -275 -11 -47
-3 -131 -7 -187 -10 -56 -3 -133 -7 -170 -10 -37 -2 -108 -7 -158 -10 -143 -9
-265 -19 -355 -29 -84 -10 -152 -16 -255 -21 -60 -4 -117 -8 -125 -10 -8 -2
-40 -7 -70 -10 -30 -3 -62 -8 -70 -10 -8 -2 -30 -7 -49 -10 -59 -10 -125 -48
-135 -77 -14 -39 10 -77 115 -187 48 -50 93 -107 100 -125 10 -28 16 -32 40
-28 18 3 37 -3 55 -17 15 -12 35 -21 45 -21 9 0 40 -5 68 -12 l51 -11 -20 -32
c-29 -46 -25 -83 14 -145 19 -30 33 -57 30 -59 -2 -2 -51 -10 -110 -18 -115
-15 -152 -29 -181 -69 -16 -22 -28 -27 -74 -29 -71 -3 -69 -2 -69 -24 0 -11
-12 -34 -27 -51 -22 -27 -25 -35 -15 -51 7 -11 10 -30 6 -44 -4 -17 2 -38 19
-67 13 -24 23 -51 22 -61 -2 -10 7 -23 21 -30 l25 -13 -26 -29 -25 -30 57 -18
c105 -32 234 -59 368 -76 231 -29 291 -31 820 -36 439 -4 502 -6 675 -22 99
-9 177 -9 218 1 28 8 32 6 32 -12 0 -15 5 -19 20 -15 11 3 41 -2 66 -12 48
-18 94 -14 94 9 0 15 27 29 40 21 17 -11 21 17 5 29 -17 12 -17 13 -1 19 19 7
56 -8 56 -22 0 -5 13 -23 29 -40 30 -32 57 -42 47 -16 -3 10 8 20 40 34 52 23
63 21 93 -20 19 -25 25 -28 42 -18 31 16 143 18 239 4 46 -7 111 -10 145 -7
75 6 170 6 254 0 35 -3 79 -1 98 5 25 8 40 8 52 0 12 -8 247 -10 797 -6 428 2
1301 6 1939 7 638 2 1225 6 1305 10 169 7 342 16 385 21 17 1 66 6 110 9 44 4
94 9 110 11 17 2 66 7 108 10 43 4 87 8 99 10 11 2 61 7 112 11 107 7 147 22
199 72 68 66 96 136 103 257 7 149 14 225 23 268 24 105 29 154 36 377 10 334
-59 435 -355 523 -97 29 -116 33 -260 52 -91 12 -593 18 -604 8z"/>
<path d="M526 5438 c-9 -5 -13 -14 -10 -20 5 -8 -1 -9 -17 -5 -13 4 -41 10
-61 13 -33 6 -39 4 -47 -17 -5 -13 -10 -18 -10 -10 -1 11 -13 13 -57 8 -31 -3
-61 -10 -66 -15 -6 -6 -8 -35 -6 -66 3 -52 1 -56 -19 -56 -31 0 -93 -31 -93
-46 0 -7 9 -52 21 -101 12 -48 23 -95 24 -103 2 -8 8 -29 13 -46 9 -29 7 -35
-24 -67 -40 -41 -98 -71 -146 -76 -31 -3 25 -135 73 -176 29 -24 32 -24 67
-10 54 23 162 37 309 40 133 3 212 -8 302 -39 24 -9 51 -16 60 -16 20 1 74 73
107 143 33 72 32 87 -9 87 -37 0 -156 55 -163 75 -4 11 12 62 61 190 25 64 13
89 -56 120 -32 15 -39 23 -35 39 6 25 -2 39 -31 55 -31 16 -60 14 -72 -6 -8
-13 -9 -4 -6 36 3 30 0 60 -6 67 -12 15 -78 16 -103 2z m60 -135 c-5 -79 -4
-94 9 -99 23 -9 41 12 56 61 14 46 28 55 47 32 8 -9 6 -34 -8 -91 -11 -43 -20
-81 -20 -84 0 -3 -15 8 -32 25 -18 18 -49 34 -68 38 -32 5 -36 3 -50 -27 -20
-44 -55 -50 -72 -11 -7 15 -19 35 -28 44 -12 12 -14 32 -10 99 4 72 8 85 24
88 30 6 35 -8 37 -111 3 -88 10 -119 26 -104 2 3 15 55 28 116 27 126 30 132
52 124 13 -5 15 -19 9 -100z m-232 -12 c4 -35 9 -74 12 -88 6 -23 -18 -63 -38
-63 -15 0 -25 42 -31 121 -6 78 -2 92 23 101 23 8 28 -2 34 -71z m-121 -83 c3
-13 12 -49 20 -82 8 -32 14 -63 12 -70 -23 -90 -31 -80 -69 83 -11 47 -12 69
-4 78 16 20 35 16 41 -9z m555 -25 c20 -18 20 -18 -12 -116 l-33 -99 -21 51
c-24 55 -26 73 -13 99 5 9 15 32 21 50 14 36 29 40 58 15z m-317 -143 c28 0
89 27 89 39 0 6 9 11 19 11 23 0 61 -48 81 -100 18 -46 48 -89 84 -120 34 -30
105 -70 123 -70 7 0 13 -5 13 -10 0 -19 -41 -91 -54 -96 -7 -3 -40 4 -72 15
-84 28 -124 33 -259 32 -147 -1 -207 -7 -271 -26 -77 -23 -90 -21 -108 25 -21
53 -21 55 12 69 60 27 102 66 158 144 31 45 69 94 82 109 l25 27 29 -24 c16
-14 38 -25 49 -25z"/>
<path d="M442 4978 c-6 -6 -12 -23 -12 -36 0 -21 -2 -23 -15 -12 -13 10 -18
11 -28 1 -12 -13 -8 -18 40 -47 16 -11 15 -13 -19 -29 -20 -10 -35 -22 -32
-27 9 -14 48 -9 78 11 29 19 29 19 56 0 15 -12 33 -17 43 -13 23 8 21 21 -3
34 -27 14 -25 27 5 42 18 10 22 17 15 28 -8 12 -13 13 -29 3 -18 -11 -20 -9
-23 20 -3 27 -7 32 -33 35 -17 2 -36 -3 -43 -10z m28 -38 c0 -5 -5 -10 -11
-10 -5 0 -7 5 -4 10 3 6 8 10 11 10 2 0 4 -4 4 -10z"/>
<path d="M291 4624 c-40 -7 -86 -18 -102 -24 -24 -11 -27 -15 -18 -32 8 -14
17 -18 32 -13 12 3 63 13 112 21 108 19 353 13 427 -10 40 -12 49 -12 59 0 19
23 7 31 -81 50 -100 21 -325 26 -429 8z"/>
<path d="M2789 4175 c0 -5 -1 -37 -2 -70 -1 -55 1 -60 21 -63 20 -3 22 1 22
37 0 23 5 41 10 41 6 0 10 -9 10 -20 0 -11 5 -20 10 -20 6 0 10 9 10 20 0 11
5 20 10 20 6 0 10 -18 10 -41 0 -36 2 -40 22 -37 22 3 23 8 19 115 -1 37 -24
39 -52 5 -20 -26 -29 -28 -29 -6 0 8 -4 12 -10 9 -5 -3 -10 1 -10 9 0 17 -40
18 -41 1z"/>
<path d="M2964 4182 c-17 -11 -13 -113 6 -132 18 -18 96 -15 116 5 9 8 14 36
14 74 0 54 -2 60 -20 58 -18 -1 -20 -8 -20 -65 l0 -63 -32 3 c-32 3 -33 4 -34
53 -1 79 -3 85 -30 67z"/>
<path d="M3141 4173 c-20 -13 -31 -61 -12 -49 5 3 11 -1 14 -8 3 -8 23 -16 44
-18 27 -2 39 -8 41 -20 3 -15 -4 -18 -32 -18 -20 0 -36 5 -36 10 0 6 -9 10
-20 10 -24 0 -25 -6 -4 -27 32 -32 134 -11 134 27 0 22 -32 43 -68 44 -30 1
-37 5 -37 21 0 15 7 20 28 20 16 1 32 -6 36 -14 5 -9 15 -11 27 -7 16 6 16 8
1 23 -21 22 -89 25 -116 6z"/>
<path d="M3310 4173 c0 -6 9 -10 20 -8 18 3 20 -2 20 -51 0 -47 -2 -54 -20
-54 -33 0 -23 -18 13 -21 47 -6 98 1 92 12 -4 5 -14 9 -24 9 -14 0 -17 9 -17
50 -1 48 4 55 33 51 7 -1 10 4 8 11 -7 18 -125 19 -125 1z"/>
<path d="M3480 4159 c-32 -33 -31 -59 5 -95 21 -21 36 -28 59 -25 49 5 80 41
36 41 -11 0 -20 -4 -20 -10 0 -5 -9 -10 -20 -10 -11 0 -20 5 -20 10 0 6 -6 10
-13 10 -9 0 -12 11 -9 35 2 19 8 32 13 29 5 -3 9 1 9 10 0 17 32 15 38 -2 5
-15 29 -16 37 -2 10 17 -18 35 -55 35 -24 0 -43 -8 -60 -26z"/>
<path d="M3810 4174 c0 -8 -4 -14 -10 -14 -16 0 -12 -89 4 -106 18 -17 103
-19 119 -1 15 15 23 122 9 113 -6 -3 -12 -1 -14 6 -6 18 -108 19 -108 2z m86
-61 c-1 -53 -1 -53 -33 -53 -32 0 -32 1 -31 48 1 51 6 58 41 58 22 0 23 -4 23
-53z"/>
<path d="M3959 4153 c-1 -42 -1 -79 0 -98 1 -8 10 -15 21 -15 16 0 20 7 20 30
0 28 2 30 40 30 38 0 59 19 23 21 -10 1 -27 2 -38 3 -13 0 -20 8 -20 21 0 17
7 20 43 21 61 2 66 3 58 12 -4 4 -39 7 -77 7 l-69 0 -1 -32z"/>
<path d="M4324 4166 c-5 -12 -15 -20 -22 -18 -7 1 -12 -10 -12 -29 0 -60 95
-105 136 -65 20 21 18 26 -12 26 -14 0 -23 -4 -19 -10 4 -6 -5 -10 -20 -10
-15 0 -24 4 -20 10 3 6 -1 10 -9 10 -17 0 -17 34 2 67 12 22 49 25 44 3 -4
-16 40 -8 46 9 3 8 0 11 -6 7 -6 -3 -12 0 -14 6 -3 8 -22 13 -45 14 -31 0 -42
-4 -49 -20z"/>
<path d="M4466 4182 c-3 -3 -6 -36 -6 -74 0 -61 2 -68 20 -68 13 0 20 7 20 20
0 11 4 20 8 20 4 0 14 -9 22 -20 15 -20 64 -28 74 -12 3 5 -6 15 -19 22 -31
17 -32 28 -2 32 30 4 35 42 8 65 -20 17 -112 28 -125 15z m94 -32 c6 -10 3
-20 -10 -32 -31 -29 -50 -23 -50 15 0 30 3 34 26 33 14 -1 29 -8 34 -16z"/>
<path d="M4629 4172 c-5 -86 -3 -112 7 -112 7 0 14 -5 16 -12 6 -16 86 -11
104 7 15 14 18 39 15 107 -1 20 -6 26 -21 25 -18 -1 -20 -8 -20 -64 l0 -63
-30 0 c-29 0 -29 1 -32 62 -2 49 -6 62 -20 64 -11 1 -18 -5 -19 -14z"/>
<path d="M4803 4182 c-8 -5 -11 -31 -10 -72 2 -58 4 -65 24 -68 19 -3 21 1 19
35 -2 21 -1 41 1 45 5 10 63 -49 63 -65 0 -8 9 -17 20 -20 19 -5 20 0 20 73 0
69 -2 78 -17 76 -10 -2 -19 -11 -21 -22 -7 -45 -12 -45 -46 -10 -37 39 -36 39
-53 28z"/>
<path d="M4993 4164 c-9 -12 -20 -21 -25 -18 -4 3 -8 -9 -8 -27 0 -45 49 -86
96 -81 18 2 31 8 28 13 -3 5 2 9 10 9 9 0 16 5 16 10 0 14 -26 13 -50 -2 -15
-10 -23 -9 -39 6 -21 20 -29 66 -11 66 6 0 10 6 10 13 0 18 32 17 46 -1 7 -10
18 -13 29 -8 17 6 17 8 2 23 -26 26 -83 24 -104 -3z"/>
<path d="M5130 4113 c0 -66 2 -73 20 -73 16 0 20 7 20 30 0 27 3 30 30 30 29
0 34 -7 31 -42 -2 -13 5 -18 21 -18 22 0 23 3 22 63 -1 34 -3 68 -3 75 -1 8
-9 12 -18 10 -18 -3 -19 -7 -22 -48 -1 -15 -8 -20 -31 -20 -28 0 -30 3 -30 34
0 29 -4 34 -20 33 -18 -1 -20 -8 -20 -74z"/>
<path d="M5320 4180 c-15 -9 -1 -18 22 -15 14 3 17 -6 17 -51 0 -52 -2 -54
-27 -54 -24 -1 -25 -2 -10 -14 10 -7 28 -12 40 -10 13 1 35 3 51 3 31 1 38 21
7 21 -18 0 -20 7 -20 54 0 49 2 54 20 51 11 -2 20 2 20 8 0 14 -101 19 -120 7z"/>
<path d="M5462 4114 c-2 -68 0 -74 18 -74 11 0 21 6 21 13 1 6 3 21 4 32 1 11
3 27 4 35 1 18 61 -48 61 -67 0 -7 9 -13 20 -13 18 0 20 7 20 73 0 66 -2 73
-20 74 -20 2 -22 -3 -23 -44 0 -30 -3 -29 -39 10 -51 54 -64 46 -66 -39z"/>
<path d="M5634 4181 c-2 -2 -4 -35 -4 -73 0 -76 -6 -71 85 -68 72 2 82 20 12
20 -50 0 -57 2 -57 20 0 17 7 20 39 20 22 0 43 5 46 10 6 10 -11 14 -57 11
-21 -1 -28 4 -28 18 0 23 14 29 62 26 22 -2 39 3 42 10 3 10 -13 12 -66 11
-38 0 -72 -3 -74 -5z"/>
<path d="M5810 4163 c-18 -24 -18 -25 1 -44 11 -11 33 -19 54 -19 28 0 35 -4
35 -20 0 -15 -7 -20 -29 -20 -17 0 -31 6 -33 14 -2 10 -9 11 -28 3 -20 -8 -22
-11 -7 -14 9 -3 17 -9 17 -14 0 -13 94 -11 108 3 31 31 3 70 -53 71 -30 1 -35
5 -33 21 2 14 11 20 31 21 15 1 27 -3 27 -9 0 -6 11 -12 25 -12 23 -2 24 -1 8
20 -25 32 -97 32 -123 -1z"/>
<path d="M6153 4175 c2 -5 9 -10 15 -10 19 0 25 -14 26 -60 1 -40 -1 -45 -21
-45 -38 0 -26 -18 15 -21 49 -5 92 0 92 11 0 5 -10 10 -22 12 -20 3 -23 9 -23
51 -1 26 3 48 7 48 4 1 13 2 18 3 6 0 11 5 13 11 1 5 -25 10 -61 10 -38 0 -61
-3 -59 -10z"/>
<path d="M6300 4114 c0 -67 2 -74 20 -74 17 0 20 7 20 40 0 22 3 40 6 40 12 0
64 -62 58 -71 -3 -5 5 -9 18 -9 23 0 24 3 23 73 -1 64 -4 72 -21 72 -10 0 -20
-7 -20 -15 -1 -8 -2 -23 -3 -32 -1 -25 -15 -22 -31 7 -7 13 -17 22 -22 19 -4
-3 -8 1 -8 8 0 8 -9 14 -20 15 -18 2 -20 -4 -20 -73z"/>
<path d="M6634 4181 c-2 -2 -4 -35 -4 -72 l0 -68 38 -3 c53 -4 112 3 112 13 0
5 -25 9 -56 9 -47 0 -55 3 -52 18 2 12 15 18 46 20 23 2 42 7 42 13 0 9 -4 10
-55 13 -27 1 -32 6 -26 34 0 5 21 8 46 8 25 -1 46 4 47 9 3 10 -128 15 -138 6z"/>
<path d="M6800 4148 c0 -34 6 -46 36 -73 30 -28 39 -32 55 -22 10 6 16 13 13
16 -2 2 6 12 18 20 24 17 38 90 18 93 -29 4 -33 1 -36 -25 -1 -15 -10 -34 -19
-43 -15 -15 -17 -15 -30 2 -8 11 -15 30 -15 44 0 18 -6 26 -20 27 -17 2 -20
-4 -20 -39z"/>
<path d="M6968 4171 c-5 -26 7 -136 15 -133 4 1 37 2 73 2 41 0 63 4 59 10 -3
6 -28 10 -56 10 -42 0 -49 3 -49 20 0 17 7 20 41 20 28 0 39 4 36 13 -2 7 -18
11 -40 10 -32 -2 -37 0 -37 20 0 20 5 22 50 21 30 0 50 4 50 11 0 18 -139 14
-142 -4z"/>
<path d="M7134 4113 c0 -72 1 -74 34 -73 4 0 6 9 6 20 -2 25 7 25 34 0 20 -19
72 -28 72 -12 0 4 -9 14 -20 22 -11 8 -20 18 -20 22 0 4 9 8 20 8 15 0 20 7
20 28 -1 45 -19 57 -85 58 l-60 0 -1 -73z m104 28 c2 -15 0 -21 -7 -17 -6 4
-11 0 -11 -8 0 -10 -9 -16 -22 -16 -20 0 -23 5 -21 32 1 18 2 33 2 34 1 0 13
0 29 -1 20 -1 28 -7 30 -24z"/>
<path d="M7325 4179 c-10 -15 2 -55 23 -75 9 -10 17 -27 17 -38 0 -14 7 -22
22 -24 18 -3 21 1 18 23 -1 16 3 29 11 32 8 3 12 9 9 13 -3 4 2 11 11 14 21 8
15 58 -8 62 -19 2 -30 -19 -22 -40 7 -18 -9 -28 -30 -20 -10 4 -14 14 -12 29
3 15 -1 26 -11 29 -20 8 -21 8 -28 -5z"/>
<path d="M7639 4185 c-5 0 -3 -138 2 -141 4 -2 29 -4 57 -5 34 -2 55 3 66 14
19 19 21 44 4 49 -9 3 -8 9 5 22 16 16 16 19 0 40 -14 19 -26 22 -75 22 -32
-1 -59 -1 -59 -1z m101 -42 c0 -24 -20 -30 -54 -17 -24 9 -2 40 28 40 20 0 26
-5 26 -23z m0 -63 c0 -16 -7 -20 -30 -20 -23 0 -30 4 -30 20 0 16 7 20 30 20
23 0 30 -4 30 -20z"/>
<path d="M7830 4180 c-16 -10 3 -22 22 -15 12 5 15 -6 15 -50 0 -51 -2 -55
-23 -55 -15 0 -22 -5 -19 -12 5 -12 25 -13 113 -9 20 1 14 21 -7 21 -16 0 -20
9 -23 50 -2 42 0 50 14 50 17 0 36 19 21 21 -34 6 -103 5 -113 -1z"/>
<path d="M7990 4179 c0 -8 15 -13 33 -10 8 1 10 -21 8 -86 -1 -38 2 -43 22
-43 22 0 23 4 22 55 -2 56 13 84 36 69 7 -4 10 -2 7 7 -5 15 -128 23 -128 8z"/>
<path d="M8144 4179 c-6 -10 -9 -127 -4 -133 8 -7 30 -8 93 -7 72 1 68 21 -4
21 -42 0 -49 3 -49 20 0 17 7 20 40 20 22 0 40 5 40 10 0 10 -18 14 -58 10
-19 -1 -23 3 -20 22 2 19 9 23 43 24 61 2 69 3 61 11 -10 10 -136 12 -142 2z"/>
</g>
</svg>
